<?xml version="1.0" standalone="no"?>
<!DOCTYPE svg PUBLIC "-//W3C//DTD SVG 1.1//EN" "http://www.w3.org/Graphics/SVG/1.1/DTD/svg11.dtd">
<svg width="100%" height="100%" viewBox="0 0 206 186" version="1.1" xmlns="http://www.w3.org/2000/svg" xmlns:xlink="http://www.w3.org/1999/xlink" xml:space="preserve" style="fill-rule:evenodd;clip-rule:evenodd;stroke-linejoin:round;stroke-miterlimit:1.41421;">
    <g id="Layer1">
        <g transform="matrix(1,0,0,1,13.633,13.9792)">
            <path d="M98.924,97.612L98.924,111.948L102.892,111.948L102.892,45.516L98.924,45.516L98.924,60.748C94.572,49.655 86.209,44.108 73.836,44.108C64.022,44.108 56.556,47.564 51.436,54.476C46.828,60.62 44.524,68.769 44.524,78.924C44.524,88.993 46.828,97.143 51.436,103.372C56.726,110.199 64.193,113.612 73.836,113.612C86.294,113.612 94.657,108.279 98.924,97.612ZM48.62,78.924C48.62,69.964 50.582,62.753 54.508,57.292C58.86,50.892 65.302,47.692 73.836,47.692C82.369,47.692 88.812,50.892 93.164,57.292C97.004,62.839 98.924,70.049 98.924,78.924C98.924,87.884 97.004,95.095 93.164,100.556C88.812,106.956 82.369,110.156 73.836,110.156C65.302,110.156 58.817,106.956 54.38,100.556C50.54,95.095 48.62,87.884 48.62,78.924Z" style="fill:rgb(136,0,14);fill-rule:nonzero;"/>
            <path d="M117.996,36.172L117.996,111.948L121.964,111.948L121.964,49.228L135.02,49.228L135.02,45.516L121.964,45.516L121.964,36.044C121.964,31.436 122.348,28.279 123.116,26.572C124.396,24.012 127.041,22.732 131.052,22.732L142.188,22.732L142.188,19.276L130.412,19.404C125.036,19.404 121.537,20.94 119.916,24.012C118.636,26.316 117.996,30.369 117.996,36.172Z" style="fill:rgb(136,0,14);fill-rule:nonzero;"/>
        </g>
        <g transform="matrix(1,0,0,1,7.49519,-2.76627)">
            <path d="M41.806,152.669L40.969,152.173C40.659,153.413 40.034,154.379 39.094,155.072C38.154,155.764 37.053,156.11 35.792,156.11C33.746,156.11 32.186,155.335 31.111,153.785C30.181,152.462 29.716,150.716 29.716,148.546C29.716,146.397 30.181,144.65 31.111,143.307C32.165,141.757 33.726,140.982 35.792,140.982C37.136,140.982 38.272,141.354 39.202,142.098C39.926,142.697 40.422,143.39 40.69,144.175L41.527,143.617C40.618,141.282 38.706,140.114 35.792,140.114C33.436,140.114 31.638,140.961 30.398,142.656C29.282,144.144 28.724,146.107 28.724,148.546C28.724,150.923 29.272,152.876 30.367,154.405C31.607,156.1 33.385,156.947 35.699,156.947C37.456,156.947 38.913,156.461 40.07,155.49C40.876,154.767 41.455,153.826 41.806,152.669Z" style="fill:black;fill-rule:nonzero;"/>
            <path d="M44.813,148.546C44.813,150.985 45.371,152.958 46.487,154.467C47.727,156.12 49.525,156.947 51.881,156.947C54.217,156.947 56.025,156.12 57.306,154.467C58.422,152.958 58.98,150.985 58.98,148.546C58.98,146.107 58.422,144.144 57.306,142.656C56.046,140.961 54.237,140.114 51.881,140.114C49.525,140.114 47.727,140.961 46.487,142.656C45.371,144.144 44.813,146.107 44.813,148.546ZM45.805,148.546C45.805,146.397 46.27,144.65 47.2,143.307C48.254,141.757 49.815,140.982 51.881,140.982C53.927,140.982 55.498,141.757 56.593,143.307C57.523,144.65 57.988,146.397 57.988,148.546C57.988,150.716 57.523,152.462 56.593,153.785C55.498,155.335 53.927,156.11 51.881,156.11C49.835,156.11 48.275,155.335 47.2,153.785C46.27,152.462 45.805,150.716 45.805,148.546Z" style="fill:black;fill-rule:nonzero;"/>
            <path d="M74.325,140.455L73.364,140.455L73.364,149.166C73.364,149.807 73.349,150.36 73.318,150.825C73.287,151.29 73.251,151.677 73.209,151.987C72.713,154.715 70.946,156.079 67.908,156.079C66.234,156.079 65.046,155.614 64.343,154.684C63.703,153.899 63.382,152.638 63.382,150.902L63.382,140.455L62.421,140.455L62.421,151.212C62.421,155.035 64.261,156.947 67.939,156.947C70.543,156.947 72.352,155.976 73.364,154.033L73.364,156.544L74.325,156.544L74.325,140.455Z" style="fill:black;fill-rule:nonzero;"/>
            <path d="M78.634,156.544L79.626,156.544L79.626,147.926C79.626,147.306 79.642,146.764 79.673,146.299C79.704,145.834 79.74,145.446 79.781,145.136C80.277,142.387 82.044,141.013 85.082,141.013C86.736,141.013 87.924,141.478 88.647,142.408C89.267,143.214 89.577,144.475 89.577,146.19L89.577,156.544L90.569,156.544L90.569,145.88C90.569,142.036 88.73,140.114 85.051,140.114C82.447,140.114 80.639,141.106 79.626,143.09L79.626,140.455L78.634,140.455L78.634,156.544Z" style="fill:black;fill-rule:nonzero;"/>
            <path d="M95.157,151.77L94.196,151.77C94.341,153.465 94.982,154.767 96.118,155.676C97.214,156.523 98.619,156.947 100.334,156.947C101.843,156.947 103.145,156.585 104.24,155.862C105.46,155.015 106.069,153.868 106.069,152.421C106.069,151.078 105.522,150.044 104.426,149.321C103.765,148.866 102.587,148.422 100.892,147.988C100.727,147.967 100.624,147.936 100.582,147.895C97.296,147.068 95.653,145.849 95.653,144.237C95.653,143.162 96.139,142.325 97.11,141.726C97.916,141.23 98.888,140.982 100.024,140.982C102.752,140.982 104.282,142.232 104.612,144.733L105.573,144.733C105.408,143.266 104.829,142.119 103.837,141.292C102.866,140.507 101.636,140.114 100.148,140.114C98.702,140.114 97.462,140.445 96.428,141.106C95.23,141.871 94.63,142.956 94.63,144.361C94.63,145.539 95.064,146.469 95.932,147.151C96.697,147.75 98.392,148.391 101.016,149.073C101.244,149.114 101.425,149.156 101.559,149.197C101.693,149.238 101.791,149.269 101.853,149.29C103.982,149.869 105.046,150.902 105.046,152.39C105.046,153.63 104.54,154.57 103.527,155.211C102.68,155.769 101.605,156.048 100.303,156.048C97.389,156.048 95.674,154.622 95.157,151.77Z" style="fill:black;fill-rule:nonzero;"/>
            <path d="M119.864,155.583C120.753,154.88 121.404,153.981 121.817,152.886L121.011,152.452C120.081,154.891 118.314,156.11 115.71,156.11C113.83,156.11 112.362,155.345 111.308,153.816C110.378,152.493 109.913,150.84 109.913,148.856L109.913,148.608L122.468,148.608L122.468,148.019C122.468,145.684 121.931,143.824 120.856,142.439C119.678,140.889 117.963,140.114 115.71,140.114C113.416,140.114 111.67,140.982 110.471,142.718C109.417,144.206 108.89,146.149 108.89,148.546C108.89,150.943 109.417,152.896 110.471,154.405C111.67,156.1 113.416,156.947 115.71,156.947C117.322,156.947 118.707,156.492 119.864,155.583ZM109.944,147.709C110.068,145.787 110.595,144.216 111.525,142.997C112.579,141.654 114.036,140.982 115.896,140.982C117.694,140.982 119.089,141.674 120.081,143.059C120.97,144.278 121.414,145.828 121.414,147.709L109.944,147.709Z" style="fill:black;fill-rule:nonzero;"/>
            <rect x="126.002" y="134.286" width="0.961" height="22.258" style="fill:black;fill-rule:nonzero;"/>
            <rect x="131.427" y="134.286" width="0.961" height="22.258" style="fill:black;fill-rule:nonzero;"/>
            <path d="M136.852,156.544L137.813,156.544L137.813,140.455L136.852,140.455L136.852,156.544ZM136.666,135.464C136.666,136.456 136.883,136.952 137.317,136.952C137.772,136.952 137.999,136.456 137.999,135.464C137.999,134.493 137.772,134.007 137.317,134.007C136.883,134.007 136.666,134.493 136.666,135.464Z" style="fill:black;fill-rule:nonzero;"/>
            <path d="M142.184,156.544L143.176,156.544L143.176,147.926C143.176,147.306 143.192,146.764 143.223,146.299C143.254,145.834 143.29,145.446 143.331,145.136C143.827,142.387 145.594,141.013 148.632,141.013C150.286,141.013 151.474,141.478 152.197,142.408C152.817,143.214 153.127,144.475 153.127,146.19L153.127,156.544L154.119,156.544L154.119,145.88C154.119,142.036 152.28,140.114 148.601,140.114C145.997,140.114 144.189,141.106 143.176,143.09L143.176,140.455L142.184,140.455L142.184,156.544Z" style="fill:black;fill-rule:nonzero;"/>
            <path d="M170.797,153.103L170.797,154.746C170.797,156.999 170.56,158.549 170.084,159.396C169.072,161.215 167.222,162.124 164.535,162.124C163.089,162.124 161.9,161.845 160.97,161.287C159.896,160.646 159.307,159.634 159.203,158.249L158.273,158.249C158.315,159.861 158.945,161.08 160.164,161.907C161.26,162.63 162.634,162.992 164.287,162.992C167.305,162.992 169.454,162.062 170.735,160.202C171.417,159.21 171.758,157.701 171.758,155.676L171.758,140.455L170.797,140.455L170.797,144.051C170.322,142.749 169.537,141.767 168.441,141.106C167.346,140.445 166.106,140.114 164.721,140.114C162.345,140.114 160.536,140.951 159.296,142.625C158.18,144.113 157.622,146.087 157.622,148.546C157.622,150.964 158.17,152.938 159.265,154.467C160.505,156.141 162.303,156.978 164.659,156.978C167.635,156.978 169.681,155.686 170.797,153.103ZM170.797,148.546C170.797,150.716 170.332,152.462 169.402,153.785C168.348,155.335 166.788,156.11 164.721,156.11C162.655,156.11 161.084,155.335 160.009,153.785C159.079,152.462 158.614,150.716 158.614,148.546C158.614,146.376 159.09,144.63 160.04,143.307C161.094,141.757 162.655,140.982 164.721,140.982C166.788,140.982 168.348,141.757 169.402,143.307C170.332,144.65 170.797,146.397 170.797,148.546Z" style="fill:black;fill-rule:nonzero;"/>
            <path d="M54.578,170.5C54.578,172.691 54.206,174.478 53.462,175.863C52.76,177.227 51.716,178.312 50.331,179.118C49.112,179.862 47.831,180.234 46.487,180.234C44.875,180.234 43.542,179.697 42.488,178.622C41.455,177.527 40.938,176.163 40.938,174.53C40.938,173.166 41.527,171.874 42.705,170.655C43.594,169.704 45.03,168.805 47.014,167.958C50.011,166.697 51.509,164.858 51.509,162.44C51.509,161.138 51.122,160.115 50.347,159.371C49.572,158.627 48.533,158.255 47.231,158.255C45.971,158.255 44.917,158.617 44.069,159.34C43.201,160.125 42.767,161.231 42.767,162.657C42.767,163.463 43.108,164.331 43.79,165.261C44.555,166.377 45.371,166.935 46.239,166.935C46.343,166.935 46.477,166.914 46.642,166.873C42.24,168.506 39.998,171.068 39.915,174.561C39.874,176.524 40.525,178.126 41.868,179.366C43.129,180.544 44.762,181.133 46.766,181.133C49.308,181.133 51.54,179.945 53.462,177.568L55.911,180.544L57.182,180.544L54.051,176.669C55.023,175.016 55.519,172.959 55.539,170.5L54.578,170.5ZM47.634,166.005C47.428,166.046 47.273,166.067 47.169,166.067C46.198,166.067 45.371,165.592 44.689,164.641C44.111,163.856 43.821,163.05 43.821,162.223C43.821,161.293 44.137,160.544 44.767,159.976C45.397,159.407 46.177,159.123 47.107,159.123C48.12,159.123 48.947,159.423 49.587,160.022C50.228,160.621 50.548,161.427 50.548,162.44C50.548,163.349 50.176,164.186 49.432,164.951C48.792,165.633 48.192,165.984 47.634,166.005Z" style="fill:black;fill-rule:nonzero;"/>
            <path d="M66.606,160.053L66.606,180.544L67.598,180.544L67.598,165.323L70.822,165.323L70.822,164.455L67.598,164.455L67.598,160.053L66.606,160.053Z" style="fill:black;fill-rule:nonzero;"/>
            <path d="M73.085,180.544L74.077,180.544L74.077,171.926C74.077,171.306 74.093,170.764 74.124,170.299C74.155,169.834 74.191,169.446 74.232,169.136C74.728,166.387 76.495,165.013 79.533,165.013C81.187,165.013 82.375,165.478 83.098,166.408C83.718,167.214 84.028,168.475 84.028,170.19L84.028,180.544L85.02,180.544L85.02,169.88C85.02,166.036 83.181,164.114 79.502,164.114C76.898,164.114 75.09,165.106 74.077,167.09L74.077,158.286L73.085,158.286L73.085,180.544Z" style="fill:black;fill-rule:nonzero;"/>
            <path d="M99.404,179.583C100.293,178.88 100.944,177.981 101.357,176.886L100.551,176.452C99.621,178.891 97.854,180.11 95.25,180.11C93.37,180.11 91.902,179.345 90.848,177.816C89.918,176.493 89.453,174.84 89.453,172.856L89.453,172.608L102.008,172.608L102.008,172.019C102.008,169.684 101.471,167.824 100.396,166.439C99.218,164.889 97.503,164.114 95.25,164.114C92.956,164.114 91.21,164.982 90.011,166.718C88.957,168.206 88.43,170.149 88.43,172.546C88.43,174.943 88.957,176.896 90.011,178.405C91.21,180.1 92.956,180.947 95.25,180.947C96.862,180.947 98.247,180.492 99.404,179.583ZM89.484,171.709C89.608,169.787 90.135,168.216 91.065,166.997C92.119,165.654 93.576,164.982 95.436,164.982C97.234,164.982 98.629,165.674 99.621,167.059C100.51,168.278 100.954,169.828 100.954,171.709L89.484,171.709Z" style="fill:black;fill-rule:nonzero;"/>
            <path d="M105.449,180.544L106.441,180.544L106.441,169.849C106.441,168.754 106.741,167.855 107.34,167.152C108.084,166.305 108.808,165.778 109.51,165.571C109.841,165.447 110.389,165.385 111.153,165.385L111.773,164.517C109.045,164.496 107.268,165.364 106.441,167.121L106.441,164.455L105.449,164.455L105.449,180.544Z" style="fill:black;fill-rule:nonzero;"/>
            <path d="M126.064,177.072L126.064,180.544L127.025,180.544L127.025,164.455L126.064,164.455L126.064,168.144C125.01,165.457 122.985,164.114 119.988,164.114C117.612,164.114 115.803,164.951 114.563,166.625C113.447,168.113 112.889,170.087 112.889,172.546C112.889,174.985 113.447,176.958 114.563,178.467C115.845,180.12 117.653,180.947 119.988,180.947C123.006,180.947 125.031,179.655 126.064,177.072ZM113.881,172.546C113.881,170.376 114.357,168.63 115.307,167.307C116.361,165.757 117.922,164.982 119.988,164.982C122.055,164.982 123.615,165.757 124.669,167.307C125.599,168.65 126.064,170.397 126.064,172.546C126.064,174.716 125.599,176.462 124.669,177.785C123.615,179.335 122.055,180.11 119.988,180.11C117.922,180.11 116.351,179.335 115.276,177.785C114.346,176.462 113.881,174.716 113.881,172.546Z" style="fill:black;fill-rule:nonzero;"/>
            <path d="M131.334,186.899L132.326,186.899L132.326,177.072C133.36,179.655 135.385,180.947 138.402,180.947C140.738,180.947 142.546,180.12 143.827,178.467C144.943,176.958 145.501,174.985 145.501,172.546C145.501,170.087 144.943,168.113 143.827,166.625C142.587,164.951 140.779,164.114 138.402,164.114C135.406,164.114 133.38,165.457 132.326,168.144L132.326,164.455L131.334,164.455L131.334,186.899ZM132.326,172.546C132.326,170.397 132.791,168.65 133.721,167.307C134.775,165.757 136.336,164.982 138.402,164.982C140.448,164.982 142.019,165.757 143.114,167.307C144.044,168.65 144.509,170.397 144.509,172.546C144.509,174.716 144.044,176.462 143.114,177.785C142.019,179.335 140.448,180.11 138.402,180.11C136.356,180.11 134.796,179.335 133.721,177.785C132.791,176.462 132.326,174.716 132.326,172.546Z" style="fill:black;fill-rule:nonzero;"/>
            <path d="M160.691,182.373C160.795,181.96 160.867,181.577 160.908,181.226C160.95,180.875 160.981,180.534 161.001,180.203L161.001,164.114L160.009,164.114L160.009,172.732C160.009,173.373 159.994,173.926 159.963,174.391C159.932,174.856 159.896,175.233 159.854,175.522C159.358,178.271 157.591,179.645 154.553,179.645C152.879,179.645 151.691,179.18 150.988,178.25C150.368,177.444 150.058,176.183 150.058,174.468L150.058,164.114L149.066,164.114L149.066,174.778C149.066,178.622 150.906,180.544 154.584,180.544C157.168,180.544 158.976,179.552 160.009,177.568L160.009,180.048C160.009,180.792 159.978,181.35 159.916,181.722C159.875,182.032 159.808,182.316 159.715,182.575C159.622,182.833 159.524,183.065 159.42,183.272C158.49,185.07 156.837,185.969 154.46,185.969C153.138,185.969 152.053,185.669 151.205,185.07C150.255,184.429 149.748,183.458 149.686,182.156L148.849,182.156C148.87,183.665 149.407,184.832 150.461,185.659C151.412,186.424 152.673,186.806 154.243,186.806C155.587,186.806 156.744,186.579 157.715,186.124C159.307,185.339 160.299,184.088 160.691,182.373Z" style="fill:black;fill-rule:nonzero;"/>
        </g>
    </g>
</svg>
